<svg xmlns="http://www.w3.org/2000/svg" viewBox="0 0 100 100"><path fill="#000" d="M6.017 4.313l55.333-4.087c6.797-.583 8.543-.19 12.817 2.917l17.663 12.443c2.913 2.14 3.883 2.723 3.883 5.053v68.243c0 4.277-1.553 6.807-6.99 7.193L24.467 99.967c-4.08.193-6.023-.39-8.16-3.113L3.3 79.94c-2.333-3.113-3.3-5.443-3.3-8.167V11.113c0-3.497 1.553-6.413 6.017-6.8z"/><path fill="#fff" d="M61.35 1.227l-55.333 4.087c-4.464.387-6.017 3.303-6.017 6.8v60.66c0 2.723.967 5.053 3.3 8.167l13.007 16.913c2.137 2.723 4.08 3.307 8.16 3.113l64.257-3.89c5.437-.387 6.99-2.917 6.99-7.193V20.64c0-2.21-.873-2.847-3.443-4.733L74.167 3.463c-4.274-3.107-6.02-3.5-12.817-2.917z"/><path fill="#000" d="M61.35 1.227l-55.333 4.087c-4.464.387-6.017 3.303-6.017 6.8v60.66c0 2.723.967 5.053 3.3 8.167l13.007 16.913c2.137 2.723 4.08 3.307 8.16 3.113l64.257-3.89c5.437-.387 6.99-2.917 6.99-7.193V20.64c0-2.21-.873-2.847-3.443-4.733L74.167 3.463c-4.274-3.107-6.02-3.5-12.817-2.917zM27.217 19.733c-5.23.353-6.437.433-9.417-1.99L8.927 11.507c-.77-.78-.383-1.753 1.557-1.947l53.193-3.887c4.467-.39 6.793 1.167 8.543 2.527l9.123 6.61c.39.197 1.36 1.36.193 1.36l-54.933 3.307-.387.256zm-8.99 56.257V31.58c0-2.53.78-3.697 3.1-3.893L87 23.88c2.14-.193 3.107 1.167 3.107 3.693v43.36c0 2.53-.387 4.67-3.883 4.863l-60.377 3.5c-3.497.193-5.23-.967-5.23-4.473v-.833zM87 76.4c0 2.143-1.167 3.3-3.497 3.5l-60.377 3.5c-3.497.193-5.23-1.36-5.23-4.66V31.777c0-2.143.78-3.497 3.1-3.693l61.35-3.693c2.14-.193 3.107 1.167 3.107 3.693V76.4z"/></svg>