<svg xmlns="http://www.w3.org/2000/svg" viewBox="0 0 109 124"><path fill="#95BF47" d="M74.7 14.6c0-.1-.1-.2-.2-.2s-2.2-.2-2.2-.2-1.4-1.4-1.6-1.6c-.2-.2-.5-.1-.6-.1l-.8.3c-.5-1.4-1.3-2.7-2.7-2.7h-.3c-.4-.5-.9-.7-1.3-.7-3.3 0-4.8 4.1-5.3 6.2l-2.2.7c-.7.2-.7.2-.8.9-.1.5-2 15.3-2 15.3l11.4 2.1 6.2-1.5s-2.6-15.5-2.6-15.9zm-6.7 1.6-3 .9-.7 2.3c1.8-.6 4-.1 4-.1.8-.2 1.7-3.1 1.7-3.1zm-4.2-2.5c1.4 0 2.2 1.8 2.7 3.3l-2.6.8c0-1.6-.6-4.1-1.6-4.1.5 0 .9.1 1.5 0z"/><path fill="#5E8E3E" d="M67.9 16.2l-.7 2.3c1.8-.6 4-.1 4-.1.8-.2 1.7-3.1 1.7-3.1l-3 .9h.1zm-4.2-2.5l-2.6.8c0-1.6-.6-4.1-1.6-4.1.5 0 .9.1 1.5 0 1.4 0 2.2 1.8 2.7 3.3zm-5.6 19.6-4.9 13.5 13-3.4-8.1-10.1z"/><path fill="#95BF47" d="M74.5 14.4l-.1.1c-.1.4-.2.9-.4 1.4-.5 1.3-1.2 2-1.9 2.5-1 .6-2.1.8-2.8.9l4.2-1.2c-.1.4-.2.7-.3 1.1-.5 1.8-1.1 3.7-1.6 5.5l-.9 3.1-2.5 8.4-5.9 1.4-10.1-1.9c1.4-5.4 3.4-13.3 5.1-20.1l.3-1.1c.1 0 .2-.1.3-.1l2.7-.9c.3 0 .5-.1.8-.1 1.8 0 3 1.4 3.8 2.8.2-.1.3-.2.5-.3l.6-.2c.1 0 .3 0 .4.1.1.1 1.3 1.3 1.5 1.5.1.1.2.1.2.1l.2-.1z"/></svg>