<svg xmlns="http://www.w3.org/2000/svg" viewBox="0 0 24 24"><path fill="#222" d="M12 2C6.48 2 2 6.48 2 12s4.48 10 10 10 10-4.48 10-10S17.52 2 12 2zm0 3.429c2.534 0 4.808 1.115 6.387 2.87l-1.117 1.116a5.148 5.148 0 0 0-5.27-1.326 5.142 5.142 0 0 0-3.638 3.638 5.148 5.148 0 0 0 1.326 5.27l-1.116 1.117A7.703 7.703 0 0 1 12 5.429zm6.387 14.872-1.117 1.116a5.148 5.148 0 0 1-5.27 1.326 5.142 5.142 0 0 1-3.638-3.638 5.148 5.148 0 0 1 1.326-5.27l-1.116-1.117A7.703 7.703 0 0 0 18.387 17.3zM12 20.57c-2.534 0-4.808-1.115-6.387-2.87l1.117-1.116a5.148 5.148 0 0 0 5.27 1.326 5.142 5.142 0 0 0 3.638-3.638 5.148 5.148 0 0 0-1.326-5.27l1.116-1.117A7.703 7.703 0 0 1 12 20.57z"/></svg>