<svg xmlns="http://www.w3.org/2000/svg" viewBox="0 0 98 40"><path fill="#000" d="M19.87 0L16.5 13.2 12.92 0H6.8l6.6 23.33h4.6l2.94-11.1 2.93 11.1h4.6L34.2 0h-6.13L24.47 13.2 21.07 0h-1.2zM68.8 0v23.33h5.47V5.87l6.13 17.46h4.4l6.13-17.46v17.46h5.47V0h-7.07l-5.33 15.2L72.93 0H68.8zM55.07 0c-5.87 0-9.73 3.73-9.73 9.33v4.67c0 5.6 3.87 9.33 9.73 9.33 5.87 0 9.74-3.73 9.74-9.33V9.33C64.8 3.73 60.93 0 55.07 0zm4.27 14c0 3.07-1.73 4.93-4.27 4.93-2.53 0-4.27-1.87-4.27-4.93v-4.67c0-3.07 1.74-4.93 4.27-4.93 2.54 0 4.27 1.87 4.27 4.93V14zM44.13 0v4.67h-5.6V0h-5.47v23.33h5.47V10.13h5.6v13.2h5.47V0h-5.47zM0 0l4.67 23.33h5.6l2.8-14.93 2.8 14.93h5.6L26.13 0h-5.47l-2.33 12.53L16 0H0z"/></svg>