<svg xmlns="http://www.w3.org/2000/svg" viewBox="0 0 24 24"><path fill="#21759b" d="M12 2C6.486 2 2 6.486 2 12s4.486 10 10 10 10-4.486 10-10S17.514 2 12 2zm6.801 15.911c-.432.825-.957 1.57-1.561 2.214-.604.644-1.296 1.209-2.067 1.686-.771.477-1.612.845-2.513 1.094-.901.249-1.847.374-2.826.374-.979 0-1.925-.125-2.826-.374-.901-.249-1.742-.617-2.513-1.094-.771-.477-1.463-1.042-2.067-1.686-.604-.644-1.129-1.389-1.561-2.214-.432-.825-.726-1.745-.894-2.721-.168-.976-.252-1.991-.252-3.036 0-1.045.084-2.06.252-3.036.168-.976.462-1.896.894-2.721.432-.825.957-1.57 1.561-2.214.604-.644 1.296-1.209 2.067-1.686.771-.477 1.612-.845 2.513-1.094.901-.249 1.847-.374 2.826-.374.979 0 1.925.125 2.826.374.901.249 1.742.617 2.513 1.094.771.477 1.463 1.042 2.067 1.686.604.644 1.129 1.389 1.561 2.214.412.825.706 1.745.874 2.721.168.976.252 1.991.252 3.036 0 1.045-.084 2.06-.252 3.036-.168.976-.462 1.896-.874 2.721z"/><path fill="#fff" d="M3.009 12c0 3.559 2.068 6.634 5.067 8.092L3.788 8.341A8.905 8.905 0 0 0 3.009 12zm18.96-.414c0-1.112-.4-1.883-.743-2.483-.458-.738-.889-1.363-.889-2.102 0-.823.625-1.592 1.505-1.592.1 0 .19.013.28.021a9.072 9.072 0 0 0-6.014-2.27c-3.102 0-5.806 1.812-7.079 4.433.198.006.384.01.541.01.963 0 2.453-.118 2.453-.118.496-.028.555.699.059.758 0 0-.5.058-1.057.086l3.36 9.998 2.02-6.058-.001-.024c-.038-.093-.07-.24-.07-.432 0-.82.625-1.591 1.505-1.591.039 0 .076.004.113.006.1-.192.19-.395.27-.608.458-1.168.729-2.506.729-3.944v-.058z"/></svg>